<?xml version="1.0" standalone="no"?>
<!DOCTYPE svg PUBLIC "-//W3C//DTD SVG 20010904//EN"
 "http://www.w3.org/TR/2001/REC-SVG-20010904/DTD/svg10.dtd">
<svg version="1.0" xmlns="http://www.w3.org/2000/svg"
 width="1082.000000pt" height="1280.000000pt" viewBox="0 0 1082.000000 1280.000000"
 preserveAspectRatio="xMidYMid meet">
<g transform="translate(0.000000,1280.000000) scale(0.100000,-0.100000)"
fill="#000000" stroke="none">
<path d="M6850 12681 c-162 -65 -608 -242 -990 -394 -947 -376 -3178 -1262
-4190 -1664 -283 -112 -760 -301 -1060 -420 -300 -119 -547 -217 -548 -219 -4
-3 16 -55 488 -1244 193 -487 457 -1153 587 -1480 129 -327 239 -599 244 -604
4 -5 232 80 516 193 279 110 511 201 515 201 3 0 20 -33 36 -72 24 -56 422
-1059 463 -1165 8 -21 10 -21 159 39 110 44 154 58 159 49 4 -7 75 -226 156
-487 82 -260 153 -474 159 -474 11 0 179 52 1079 334 740 232 1396 438 2222
696 407 127 961 301 1230 385 1148 360 1839 576 2275 712 256 80 466 146 467
147 2 2 -400 1290 -981 3145 -47 151 -87 276 -90 278 -2 2 -98 -25 -212 -61
l-209 -65 -17 22 c-10 12 -44 60 -75 107 -51 75 -87 158 -297 690 -131 333
-240 607 -242 609 -3 3 -70 -22 -151 -54 -97 -39 -150 -55 -159 -49 -8 5 -124
164 -259 354 -136 190 -250 346 -255 348 -5 2 -111 -69 -234 -157 -124 -89
-231 -163 -238 -166 -9 -3 -47 82 -127 283 -63 158 -117 290 -120 294 -3 3
-139 -47 -301 -111z"/>
<path d="M770 5189 c-417 -63 -743 -423 -767 -849 -25 -445 276 -846 707 -941
77 -17 133 -21 295 -22 179 -1 208 1 280 21 328 92 568 334 657 663 31 117 31
326 -1 444 -91 339 -363 599 -695 665 -109 22 -384 33 -476 19z"/>
<path d="M4748 4890 c-238 -41 -470 -194 -603 -400 -60 -92 -151 -277 -180
-364 -42 -130 -51 -333 -19 -456 46 -185 118 -317 244 -447 222 -229 564 -324
875 -243 186 49 377 174 489 322 70 92 180 298 215 404 172 514 -148 1068
-681 1178 -81 17 -257 20 -340 6z"/>
<path d="M3772 1959 c-266 -31 -511 -179 -656 -397 -90 -135 -144 -297 -153
-457 -7 -120 5 -203 53 -373 62 -220 110 -312 229 -440 310 -334 807 -385
1193 -123 69 46 190 173 238 248 87 137 133 282 141 453 6 126 -3 191 -56 383
-69 253 -197 437 -396 566 -170 110 -395 163 -593 140z"/>
</g>
</svg>
