<?xml version="1.0" standalone="no"?>
<!DOCTYPE svg PUBLIC "-//W3C//DTD SVG 20010904//EN"
 "http://www.w3.org/TR/2001/REC-SVG-20010904/DTD/svg10.dtd">
<svg version="1.0" xmlns="http://www.w3.org/2000/svg"
 width="1280.000000pt" height="976.000000pt" viewBox="0 0 1280.000000 976.000000"
 preserveAspectRatio="xMidYMid meet">
<g transform="translate(0.000000,976.000000) scale(0.100000,-0.100000)"
fill="#000000" stroke="none">
<path d="M549 9745 c-131 -32 -247 -103 -354 -217 -81 -86 -126 -157 -163
-260 l-27 -73 0 -4315 0 -4315 27 -73 c41 -112 85 -179 183 -277 98 -98 165
-142 277 -183 l73 -27 2295 0 c2224 0 2297 1 2350 19 212 73 372 216 462 414
55 122 57 153 58 898 l0 682 -182 72 c-215 85 -339 147 -426 212 -35 27 -65
48 -68 48 -2 0 -4 -225 -4 -500 l0 -500 -2190 0 -2190 0 0 3700 0 3700 2190 0
2190 0 0 -335 c0 -184 3 -335 6 -335 3 0 68 38 144 85 171 104 317 178 435
221 l90 32 3 338 c2 258 -1 358 -12 422 -43 247 -239 465 -505 560 -42 15
-241 17 -2326 19 -1895 1 -2289 -1 -2336 -12z m3161 -490 l0 -165 -845 0 -845
0 0 165 0 165 845 0 845 0 0 -165z m-708 -8278 c71 -32 133 -94 167 -166 36
-78 37 -201 1 -276 -36 -74 -114 -147 -185 -174 -82 -31 -197 -26 -270 11 -60
32 -125 97 -156 158 -33 66 -38 186 -10 261 68 181 277 267 453 186z"/>
<path d="M7665 9754 c-185 -39 -353 -148 -460 -299 -25 -34 -59 -92 -76 -128
-51 -109 -58 -182 -59 -567 l0 -345 253 -245 c138 -135 288 -284 332 -332 44
-47 83 -86 88 -87 4 0 7 224 7 499 l0 500 2190 0 2190 0 0 -3700 0 -3700
-2190 0 -2190 0 -2 334 -3 334 -120 -74 c-159 -99 -338 -190 -455 -230 l-95
-34 -3 -497 c-3 -547 1 -614 50 -730 91 -220 310 -403 531 -443 34 -7 867 -9
2317 -8 l2265 3 73 27 c108 39 210 108 294 197 85 91 129 160 166 263 l27 73
0 4315 0 4315 -27 73 c-41 112 -85 179 -183 277 -98 98 -165 142 -277 183
l-73 27 -2275 1 c-1251 1 -2284 0 -2295 -2z m3115 -499 l0 -165 -842 0 -843 0
0 165 0 165 843 0 842 0 0 -165z m-750 -8261 c104 -31 184 -105 221 -204 29
-77 23 -194 -13 -265 -32 -60 -97 -125 -158 -156 -68 -34 -186 -38 -265 -8
-113 42 -200 158 -212 283 -22 233 202 417 427 350z"/>
<path d="M5885 7726 c-357 -60 -732 -267 -1142 -628 -108 -95 -357 -347 -350
-354 1 -2 36 13 77 32 274 131 645 238 955 275 55 6 172 12 260 12 133 1 175
-2 246 -20 244 -62 473 -205 719 -453 136 -136 265 -293 368 -448 l56 -83
-332 -332 c-183 -183 -332 -334 -332 -337 0 -3 452 -4 1005 -2 l1005 2 0 1008
0 1007 -333 -333 c-182 -182 -335 -332 -339 -332 -4 0 -25 27 -48 60 -123 182
-322 401 -475 525 -267 216 -530 336 -855 392 -122 20 -386 26 -485 9z"/>
<path d="M5054 6391 c-2 -2 -4 -305 -4 -673 l0 -668 340 0 340 0 -2 670 -3
671 -333 2 c-184 1 -336 0 -338 -2z"/>
<path d="M7072 4378 l3 -673 338 -3 337 -2 0 675 0 675 -340 0 -340 0 2 -672z"/>
<path d="M4380 3703 l0 -1008 336 335 336 335 16 -25 c76 -113 217 -286 321
-392 190 -196 337 -306 546 -408 151 -74 264 -113 424 -147 113 -24 147 -27
341 -27 205 -1 220 0 325 27 374 97 768 346 1169 737 87 85 171 171 187 191
l29 37 -128 -58 c-366 -167 -818 -270 -1188 -270 -326 0 -614 147 -950 484
-143 144 -320 362 -389 481 l-28 47 334 334 334 334 -1008 0 -1007 0 0 -1007z"/>
</g>
</svg>
